<svg width="16" height="16" viewBox="0 0 16 16" fill="none" xmlns="http://www.w3.org/2000/svg">
<path d="M13.7143 1.33331H2.28274C1.75893 1.33331 1.33334 1.76486 1.33334 2.29462V13.7053C1.33334 14.2351 1.75893 14.6666 2.28274 14.6666H13.7143C14.2381 14.6666 14.6667 14.2351 14.6667 13.7053V2.29462C14.6667 1.76486 14.2381 1.33331 13.7143 1.33331ZM5.3631 12.7619H3.38691V6.39879H5.36607V12.7619H5.3631ZM4.375 5.52974C3.74107 5.52974 3.22917 5.01486 3.22917 4.38391C3.22917 3.75296 3.74107 3.23808 4.375 3.23808C5.00596 3.23808 5.52084 3.75296 5.52084 4.38391C5.52084 5.01784 5.00893 5.52974 4.375 5.52974V5.52974ZM12.7708 12.7619H10.7946V9.66665C10.7946 8.92855 10.7798 7.97915 9.76786 7.97915C8.7381 7.97915 8.58036 8.78272 8.58036 9.61308V12.7619H6.60417V6.39879H8.5V7.26784H8.52679C8.79167 6.76784 9.4375 6.24105 10.3988 6.24105C12.3988 6.24105 12.7708 7.5595 12.7708 9.27379V12.7619V12.7619Z" fill="white"/>
</svg>
